<?xml version="1.0" encoding="utf-8"?>
<!-- Generator: Adobe Illustrator 19.1.0, SVG Export Plug-In . SVG Version: 6.00 Build 0)  -->
<svg version="1.1" id="Layer_1" xmlns="http://www.w3.org/2000/svg" xmlns:xlink="http://www.w3.org/1999/xlink" x="0px" y="0px"
	 viewBox="0 0 360 360" style="enable-background:new 0 0 360 360;" xml:space="preserve">
<style type="text/css">
	.st0{fill:#EF4621;}
	.st1{fill:#FFFFFF;}
</style>
<rect class="st0" width="360" height="360"/>
<g>
	<g>
		<g>
			<path class="st1" d="M47.5,150.9L44.7,138c-1.7-7.6,2.3-14.1,9.7-15.7c7.3-1.6,13.7,2.6,15.4,10.2l2.8,12.9
				c1.7,7.6-2.4,14-9.7,15.6C55.5,162.7,49.2,158.5,47.5,150.9z M54.1,135.6l3,13.5c0.7,3.2,2.6,3.2,3.9,2.9c1.3-0.3,3-1,2.3-4.2
				l-3-13.5c-0.7-3.2-2.4-3.2-3.9-2.9C54.9,131.7,53.4,132.4,54.1,135.6z"/>
			<path class="st1" d="M59.8,161.8c-2.5,0-4.9-0.7-7-2c-2.8-1.9-4.9-5-5.7-8.8l-2.8-12.9c-0.8-3.8-0.3-7.5,1.5-10.4
				c1.8-2.9,4.8-5,8.5-5.8c3.6-0.8,7.2-0.2,10.1,1.7c2.9,1.9,4.9,5,5.7,8.8l2.8,12.9c0.8,3.8,0.3,7.4-1.5,10.3
				c-1.8,2.9-4.8,4.9-8.5,5.7C61.9,161.6,60.9,161.8,59.8,161.8z M57.5,122.4c-1,0-2,0.1-3,0.3c-3.5,0.8-6.3,2.7-8,5.4
				c-1.7,2.8-2.2,6.2-1.4,9.8l2.8,12.9c0.8,3.6,2.7,6.5,5.4,8.3c2.7,1.8,6,2.3,9.6,1.6c3.4-0.8,6.3-2.7,8-5.4
				c1.7-2.7,2.2-6.2,1.4-9.8l-2.8-12.9c-0.8-3.6-2.7-6.5-5.4-8.3C62.1,123,59.9,122.4,57.5,122.4z M59.9,152.5
				c-0.4,0-0.9-0.1-1.3-0.3c-0.9-0.5-1.6-1.5-1.9-3l-3-13.5v0c-0.3-1.6-0.2-2.7,0.4-3.5c0.6-0.8,1.5-1,2.2-1.2
				c0.7-0.2,1.6-0.3,2.5,0.2c0.9,0.5,1.5,1.5,1.9,3l3,13.5c0.3,1.5,0.2,2.7-0.5,3.5c-0.6,0.8-1.5,1-2.1,1.2
				C60.7,152.4,60.4,152.5,59.9,152.5z M57.5,131.6c-0.3,0-0.7,0.1-1,0.1c-0.6,0.1-1.3,0.4-1.8,0.9c-0.5,0.6-0.6,1.6-0.3,2.9
				c0,0,0,0,0,0l3,13.5c0.3,1.3,0.8,2.1,1.5,2.5c0.7,0.3,1.4,0.2,1.9,0.1c0.5-0.1,1.2-0.3,1.7-0.9c0.5-0.6,0.6-1.6,0.3-2.9l-3-13.5
				c-0.3-1.3-0.8-2.2-1.5-2.5C58.1,131.6,57.8,131.6,57.5,131.6z"/>
		</g>
		<g>
			<path class="st1" d="M134.1,119.3l17.5-34.1l11.3,5.8c6.7,3.5,9.1,10.4,4.8,18.7l-0.5,0.9c-2.5,4.9-6,7.6-9.9,8.2l-0.9,12
				l-9.3-4.8l1.4-9.1l-1.8-0.9l-4,7.8L134.1,119.3z M156,97.9l-5.1,10l1.6,0.8c1.7,0.9,4.2,1.6,6.3-2.6l0.4-0.8
				c2.1-4.1,0.3-5.7-1.6-6.7L156,97.9z"/>
			<path class="st1" d="M156.4,131.2c-0.1,0-0.1,0-0.2,0l-9.3-4.8c-0.1-0.1-0.2-0.2-0.2-0.4l1.3-8.8l-1.3-0.7l-3.8,7.4
				c0,0.1-0.1,0.2-0.2,0.2c-0.1,0-0.2,0-0.3,0l-8.6-4.4c-0.2-0.1-0.3-0.3-0.2-0.5l17.5-34.1c0.1-0.2,0.3-0.3,0.5-0.2l11.3,5.8
				c7.2,3.7,9.1,11.1,5,19.2l-0.5,0.9c-2.4,4.7-5.8,7.6-9.8,8.4l-0.9,11.7c0,0.1-0.1,0.2-0.2,0.3
				C156.6,131.2,156.5,131.2,156.4,131.2z M147.5,125.8l8.6,4.4l0.9-11.4c0-0.2,0.1-0.3,0.3-0.3c3.9-0.6,7.2-3.4,9.6-8l0.5-0.9
				c4-7.7,2.2-14.6-4.7-18.2l-10.9-5.6l-17.2,33.4l7.9,4.1l3.8-7.4c0.1-0.2,0.3-0.3,0.5-0.2l1.8,0.9c0.1,0.1,0.2,0.2,0.2,0.4
				L147.5,125.8z M154.8,109.7c-1,0-1.9-0.4-2.5-0.7l-1.6-0.8c-0.1,0-0.2-0.1-0.2-0.2c0-0.1,0-0.2,0-0.3l5.1-10
				c0.1-0.2,0.3-0.3,0.5-0.2l1.6,0.8c1.8,0.9,4,2.7,1.7,7.2l-0.4,0.8c-1,1.9-2.2,3-3.6,3.3C155.3,109.7,155,109.7,154.8,109.7z
				 M151.3,107.7l1.3,0.6c0.7,0.3,1.7,0.8,2.8,0.6c1.2-0.2,2.2-1.2,3.1-2.9l0.4-0.8c2-3.8,0.4-5.2-1.4-6.2l-1.3-0.6L151.3,107.7z"/>
		</g>
		<g>
			<path class="st1" d="M238.6,162.2l-1.1,8.2c-1.1,7.7-7,12.4-14.5,11.3c-7.5-1-12-7.1-10.9-14.8l1.8-13.1
				c1.1-7.7,7-12.4,14.5-11.4c7.4,1,11.8,7,10.9,14.6l-9.6-1.3c0.5-3.3-1.2-3.9-2.6-4.1c-1.5-0.2-3.2-0.1-3.6,3.2l-1.9,13.7
				c-0.4,3.2,1.3,3.9,2.6,4c1.3,0.2,3.2,0.1,3.6-3.2l0-0.3l-1.9-0.3l1.1-8.3L238.6,162.2z"/>
			<path class="st1" d="M225.1,182.3c-0.7,0-1.4,0-2.1-0.1c-3.7-0.5-6.9-2.3-8.9-5.1c-2-2.7-2.8-6.4-2.3-10.2l1.8-13.1
				c1.1-7.9,7.2-12.8,14.9-11.7c7.5,1,12.2,7.2,11.2,15c0,0.1-0.1,0.2-0.1,0.3c-0.1,0.1-0.2,0.1-0.3,0.1l-9.6-1.3
				c-0.1,0-0.2-0.1-0.2-0.1s-0.1-0.2-0.1-0.3c0.2-1.3,0-2.3-0.5-2.9c-0.5-0.5-1.2-0.7-1.8-0.8c-1.3-0.2-2.8-0.1-3.2,2.9l-1.9,13.7
				c-0.4,2.9,1,3.4,2.3,3.6c1.3,0.2,2.8,0,3.2-2.8l-1.6-0.2c-0.2,0-0.3-0.2-0.3-0.4l1.1-8.3c0-0.1,0.1-0.2,0.1-0.2
				c0.1-0.1,0.2-0.1,0.3-0.1l11.5,1.6c0.1,0,0.2,0.1,0.2,0.1s0.1,0.2,0.1,0.3l-1.1,8.2C236.9,177.7,231.7,182.3,225.1,182.3z
				 M226.4,142.8c-6.3,0-11.2,4.4-12.1,11.2l-1.8,13.1c-0.5,3.6,0.3,7,2.2,9.6c1.9,2.6,4.8,4.3,8.4,4.8c7.3,1,13-3.5,14.1-11
				l1.1-7.9l-10.8-1.5l-1,7.5l1.6,0.2c0.1,0,0.2,0.1,0.2,0.1c0.1,0.1,0.1,0.2,0.1,0.3l0,0.3c-0.4,2.7-1.7,3.8-4,3.5
				c-2.3-0.3-3.3-1.8-2.9-4.5l1.9-13.7c0.5-3.6,2.4-3.8,4-3.5c0.7,0.1,1.6,0.3,2.2,1c0.6,0.7,0.9,1.7,0.7,3.1l8.8,1.2
				c0.7-7.2-3.7-12.8-10.6-13.8C227.7,142.8,227,142.8,226.4,142.8z"/>
		</g>
		<g>
			<path class="st1" d="M302.8,120.9l-7.1,3.4l1.5,6.5l-8.7,4.2L280.9,96l9.3-4.4l25.4,30.4l-8.7,4.2L302.8,120.9z M294,117l4.5-2.2
				l-7.8-10.7L294,117z"/>
			<path class="st1" d="M288.4,135.3c-0.1,0-0.1,0-0.2,0c-0.1-0.1-0.2-0.2-0.2-0.3l-7.5-38.9c0-0.2,0.1-0.4,0.2-0.5l9.3-4.4
				c0.2-0.1,0.4,0,0.5,0.1l25.4,30.4c0.1,0.1,0.1,0.2,0.1,0.4c0,0.1-0.1,0.2-0.2,0.3l-8.7,4.2c-0.2,0.1-0.4,0-0.5-0.1l-3.9-4.9
				l-6.5,3.1l1.4,6.1c0,0.2-0.1,0.4-0.2,0.5l-8.7,4.2C288.5,135.3,288.5,135.3,288.4,135.3z M281.4,96.2l7.3,38l7.9-3.8l-1.4-6.1
				c0-0.2,0.1-0.4,0.2-0.5l7.1-3.4c0.2-0.1,0.4,0,0.5,0.1l3.9,4.9l7.9-3.8l-24.8-29.7L281.4,96.2z M294,117.5c-0.1,0-0.1,0-0.2,0
				c-0.1-0.1-0.2-0.2-0.2-0.3l-3.2-12.8c-0.1-0.2,0.1-0.4,0.2-0.5c0.2-0.1,0.4,0,0.6,0.1l7.8,10.7c0.1,0.1,0.1,0.2,0.1,0.4
				c0,0.1-0.1,0.2-0.2,0.3l-4.5,2.2C294.1,117.5,294.1,117.5,294,117.5z M291.8,106.3l2.5,10.1l3.6-1.7L291.8,106.3z"/>
		</g>
	</g>
	<g>
		<path class="st1" d="M79.8,257.1l-8.9-2l-3-18l-3.8,16.5l-9.4-2.2l8.6-37.4l8.9,2l3,18.1l3.8-16.6l9.4,2.2L79.8,257.1z"/>
		<path class="st1" d="M147.1,227l-9.5,1.5l-6-37.9l9.5-1.5L147.1,227z"/>
		<path class="st1" d="M225.2,266.8l-18.8,13.1l-8.1-29.8l-7.4,5.1l-5.3-7.6l17.7-12.3l8.1,29.8l8.5-5.9L225.2,266.8z"/>
		<path class="st1" d="M302.1,216.1l-11.9-1.3l-0.6,5.8l9,0.9l-0.9,8.3l-9-0.9l-0.6,5.6l11.9,1.3l-1,9.2l-21.4-2.3l4-38.1l21.4,2.3
			L302.1,216.1z"/>
	</g>
	<g>
		<path class="st1" d="M216.6,136.2c-0.3,0-0.5-0.1-0.7-0.3c-10.9-12.1-25.7-20.2-41.7-23c-0.5-0.1-0.8-0.6-0.8-1.1
			c0.1-0.5,0.6-0.9,1.1-0.8c16.4,2.8,31.5,11.2,42.7,23.5c0.3,0.4,0.3,1-0.1,1.3C217.1,136.1,216.9,136.2,216.6,136.2z"/>
	</g>
	<g>
		<path class="st1" d="M237,138.2c-0.2,0-0.4-0.1-0.6-0.2c-0.4-0.3-0.5-0.9-0.2-1.3c9.4-12.6,22.9-21.5,38.1-25.2
			c0.5-0.1,1,0.2,1.1,0.7c0.1,0.5-0.2,1-0.7,1.1c-14.8,3.6-27.9,12.3-37.1,24.5C237.5,138.1,237.2,138.2,237,138.2z"/>
	</g>
	<g>
		<path class="st1" d="M88.6,208.3c-0.3,0-0.6-0.1-0.8-0.4c-0.3-0.4-0.2-1,0.2-1.3c8.9-6.2,19.2-9.9,30-10.7c0.5,0,1,0.3,1,0.9
			c0,0.5-0.3,1-0.9,1c-10.4,0.8-20.5,4.4-29.1,10.3C89,208.2,88.8,208.3,88.6,208.3z"/>
	</g>
	<g>
		<path class="st1" d="M187.7,229.8c-0.3,0-0.5-0.1-0.7-0.3c-8.7-10.3-20.1-17.9-32.9-21.8c-0.5-0.2-0.8-0.7-0.6-1.2
			c0.2-0.5,0.7-0.8,1.2-0.6c13.2,4.1,24.8,11.8,33.8,22.4c0.3,0.4,0.3,1-0.1,1.3C188.1,229.7,187.9,229.8,187.7,229.8z"/>
	</g>
	<g>
		<path class="st1" d="M230.6,280.6c-1.2,0-2.5,0-3.7-0.1c-0.5,0-0.9-0.5-0.9-1c0-0.5,0.5-0.9,1-0.9c1.2,0.1,2.4,0.1,3.6,0.1
			c20.7,0,40-9.2,53-25.3c0.3-0.4,0.9-0.5,1.3-0.1c0.4,0.3,0.5,0.9,0.1,1.3C271.7,271.1,251.8,280.6,230.6,280.6z"/>
	</g>
	<g>
		<path class="st1" d="M63.4,112.6c-0.1,0-0.3,0-0.4-0.1c-0.5-0.2-0.7-0.8-0.5-1.2c8.9-19.3,28.4-31.8,49.7-31.8
			c9.5,0,18.9,2.5,27.1,7.2c0.4,0.3,0.6,0.8,0.3,1.3c-0.3,0.4-0.8,0.6-1.3,0.3c-7.9-4.6-17-7-26.2-7c-20.5,0-39.4,12.1-48,30.7
			C64.1,112.4,63.7,112.6,63.4,112.6z"/>
	</g>
</g>
</svg>
